<?xml version="1.0" encoding="UTF-8" standalone="no"?>
<svg
   xmlns:dc="http://purl.org/dc/elements/1.1/"
   xmlns:cc="http://creativecommons.org/ns#"
   xmlns:rdf="http://www.w3.org/1999/02/22-rdf-syntax-ns#"
   xmlns:svg="http://www.w3.org/2000/svg"
   xmlns="http://www.w3.org/2000/svg"
   id="svg8"
   version="1.1"
   viewBox="0 0 1000 1000"
   height="1000"
   width="1000">
  <defs
     id="defs2" />
  <metadata
     id="metadata5">
    <rdf:RDF>
      <cc:Work
         rdf:about="">
        <dc:format>image/svg+xml</dc:format>
        <dc:type
           rdf:resource="http://purl.org/dc/dcmitype/StillImage" />
        <dc:title></dc:title>
      </cc:Work>
    </rdf:RDF>
  </metadata>
  <g
     transform="translate(0,-122.51965)"
     id="layer1">
    <path
       id="path59"
       d="m 289.93566,195.27395 c -64.07639,0.23673 -128.16289,24.78976 -178.13414,74.22898 -56.872006,56.26648 -88.93757,147.01859 -86.215157,238.07409 0.290963,9.7317 0.982306,19.46675 2.082774,29.20426 41.28234,14.33251 84.029133,30.99469 136.297093,19.78184 12.51497,-94.80076 56.6862,-227.24117 125.88662,-230.72652 0.82778,-0.0435 1.64426,-0.0727 2.44919,-0.0839 h 0.001 c 12.07731,-0.16569 21.56522,3.30507 28.46689,9.83987 8.09785,6.97064 11.78085,17.42682 11.78085,30.67104 -0.7361,71.10057 -61.10438,163.81062 -110.42799,192.39027 -5.88948,29.97375 -8.83478,57.15979 -8.83478,75.98051 0,32.76202 1.47446,72.49665 13.2533,82.9526 2.2085,1.39413 4.41759,2.09071 7.36233,2.09071 28.71079,-2.09117 72.14427,-119.19743 91.28484,-180.53908 0.51994,-1.47711 1.78354,-2.60014 3.51327,-3.38167 2.47031,-4.64172 4.85398,-7.65048 6.87225,-8.46951 6.62572,-3.48531 12.5152,-4.18257 17.66844,-4.18257 1.47236,-13.9413 6.62585,-30.67106 17.66843,-43.91528 10.30648,-11.8501 23.55618,-18.82159 39.75199,-19.51866 h 1.47587 c 48.58749,0 58.89075,64.13078 60.36309,71.10141 2.94474,22.30607 2.94463,46.00593 -0.73622,69.7061 15.11861,-11.6784 25.90033,-30.24406 32.65058,-44.9839 -0.17349,-7.92088 -0.63792,-14.97577 -1.65964,-20.5385 -0.73612,-3.48529 1.47037,-6.97154 4.41513,-7.6686 12.51482,-3.48531 27.23796,-1.39448 37.54443,4.87909 6.62548,4.18239 10.3095,10.45618 11.04575,17.42681 2.2085,26.48845 1.47122,59.24919 0.7351,87.13177 0,19.51781 -0.73613,37.6426 0,51.58389 0,2.78826 0.7352,8.3658 2.20756,10.45699 0.73624,0.69675 1.47131,0.6954 2.20756,0.6954 17.66833,-11.15301 39.01708,-48.79373 55.9491,-98.28529 0,-1.39415 0.7351,-2.09078 0.7351,-3.48491 -23.55752,-15.3354 -38.2786,-55.06939 -40.48709,-94.10497 -0.73612,-3.48535 -5.15571,-89.22386 41.22332,-94.80039 8.09786,-0.69707 31.65865,-3.48313 38.28407,36.9466 5.88952,36.24736 -10e-4,89.22148 -15.46087,143.59249 2.20852,0.69708 4.4177,0.69879 6.62609,0.69879 16.34024,-1.03144 33.05988,-21.50645 42.1558,-35.76794 4.33808,-15.97774 11.00748,-32.24201 19.61509,-47.18465 21.34921,-34.85323 50.05602,-56.46205 80.97534,-60.64442 25.76602,-3.48532 38.28223,4.18172 43.43542,11.15238 8.83407,10.45595 9.57258,26.48975 2.94719,42.52222 -20.61294,51.58275 -63.31386,80.86058 -92.76069,89.92241 -0.73619,8.36479 -1.47243,16.03188 -0.73624,24.39663 5.15337,53.67395 24.29561,63.43288 40.49166,64.82699 64.7831,6.27358 116.31512,-112.22802 181.83458,-118.5016 1.04663,-0.11011 2.07985,-0.18852 3.10488,-0.2473 3.21076,-17.6096 5.04278,-35.2144 5.56882,-52.80792 2.72241,-91.05552 -29.34316,-181.80762 -86.21516,-238.07409 -56.87189,-56.26648 -138.54918,-78.04755 -202.98343,-73.50977 -64.43422,4.53778 -111.62645,35.39345 -141.87726,74.1144 -22.3461,28.60295 -35.44087,61.49555 -43.32312,92.70739 -7.87914,-31.24559 -20.97943,-64.18321 -43.35262,-92.82082 -30.25081,-38.72096 -99.27084,-72.74125 -157.27463,-74.69183 -3.14956,-0.10591 -6.30059,-0.15344 -9.45189,-0.1418 z m 20.52828,153.56281 c -20.61295,0 -44.90502,42.52372 -66.25409,115.7155 -6.6256,20.91192 -11.77895,43.91338 -16.9322,65.52238 2.94475,-2.09118 5.88891,-4.87923 8.83366,-7.66747 39.75338,-38.33855 80.97974,-108.74175 80.24362,-161.02157 0,-2.09118 -0.73521,-4.87922 -1.47133,-7.66748 -1.47237,-4.88045 -3.68354,-4.88136 -4.41966,-4.88136 z m 319.65065,80.16309 c -1.47233,0 -6.62521,7.67002 -9.56988,39.73497 -2.20851,23.00311 -2.94481,50.18657 -1.47247,69.0073 0.73617,14.63837 3.67905,25.79287 6.62383,33.46055 11.04259,-40.42972 16.19692,-80.16322 13.9884,-109.43993 -1.47233,-23.00313 -5.15398,-29.97403 -8.09855,-32.06523 0,-0.69707 -0.73521,-0.69766 -1.47133,-0.69766 z m 181.02915,39.03731 c -5.88939,0 -13.25387,3.48575 -20.61561,9.75933 -17.6682,15.3354 -35.33319,49.49095 -43.4309,89.22362 22.82121,-9.75889 39.75223,-27.18402 56.68423,-56.46072 7.36181,-12.54718 13.98697,-35.55266 10.30609,-41.12917 0,-1.39387 -0.73624,-1.39306 -0.73624,-1.39306 z m -390.91089,9.75933 c -6.6256,0.69704 -13.25029,4.18114 -18.40353,10.45473 -11.77883,14.63835 -15.45932,40.431 -11.04235,67.61651 4.41712,23.00312 14.72525,54.37059 50.06151,55.06767 h 5.8876 c 5.88961,-28.57965 7.36418,-59.25136 2.94719,-84.34566 -7.36172,-45.30917 -23.55754,-48.79325 -28.71078,-48.79325 z M 30.644701,557.5251 c 12.946893,74.48013 50.599332,149.05182 119.574749,223.21899 84.40024,90.75299 215.69023,180.90011 282.08353,226.16951 47.17438,32.1652 61.72218,41.1103 66.72486,42.7378 3.35595,1.0917 13.46662,-4.9852 68.66925,-42.6244 66.39333,-45.26937 197.68331,-135.41648 282.08352,-226.16947 57.49935,-61.8273 93.22918,-123.93544 111.02927,-186.03757 -0.99696,-0.25478 -2.05028,-0.46246 -3.16842,-0.61371 -39.75344,-5.57651 -108.21845,120.59003 -197.29542,107.34581 -30.18314,-4.87945 -72.14318,-34.85024 -75.82401,-99.6772 -0.41663,-5.26287 -0.41239,-10.82561 -0.0148,-16.59075 -10.99595,10.32203 -25.10597,18.79933 -41.87902,19.37685 -2.20864,0 -3.68233,-0.002 -5.89098,-0.69878 -1.47219,4.1824 -2.20657,8.36757 -3.67889,12.54997 -22.82146,65.52402 -50.79517,108.0443 -76.56134,114.3179 -2.94461,0.69676 -5.15266,0.69539 -8.09741,0.69539 -6.62535,0 -13.25155,-2.08864 -19.1409,-6.27101 -11.04261,-6.97064 -24.29348,-24.40007 -26.50209,-64.13274 -0.73626,-14.63836 -2e-5,-34.15402 0.73623,-54.36888 0.13334,-5.05294 0.29131,-10.04169 0.44242,-15.02411 -8.10361,11.77078 -20.52827,24.84972 -36.58359,32.45093 -2.94474,11.85009 -6.62876,23.0029 -11.04575,34.15595 -14.72346,35.55026 -36.07241,59.94696 -55.94909,64.12933 -5.15326,0.69708 -9.5679,1.39305 -13.98501,1.39305 -12.51498,0 -23.5591,-3.48233 -33.12932,-9.75593 -23.55756,-15.3354 -36.07113,-48.09834 -39.75199,-72.49559 -0.61544,-3.76205 -1.05369,-7.59405 -1.36243,-11.45528 -21.28986,54.19795 -51.40049,108.2458 -87.05803,110.43822 -24.29367,0 -61.84141,-34.15785 -64.78615,-128.9586 0,-11.15302 0.73872,-24.39495 2.21097,-38.33624 -50.91415,8.38423 -94.058088,-3.54045 -131.85021,-15.76944 z m 346.157259,40.16605 c -3.68086,20.21486 -7.36326,41.82453 -4.41852,66.91885 2.2085,15.33542 5.88808,25.791 11.77744,29.97338 3.68088,2.78826 7.36478,2.09011 10.30953,1.39306 h 1.47132 c 8.09786,-0.69707 15.45794,-5.57546 22.8198,-14.6373 10.30634,-11.8501 18.40516,-30.67255 24.29452,-52.28155 h -6.62609 c -27.97454,-2.78826 -47.11304,-16.03102 -59.628,-31.36644 z"
       style="fill:#d40000;fill-opacity:1;stroke:none;stroke-width:0.58081794px;stroke-linecap:butt;stroke-linejoin:miter;stroke-opacity:1" />
  </g>
</svg>
